# xmcd
#
# Track frame offsets: 
#        150
#        20910
#        32125
#        45410
#        59792
#        77150
#        94592
#        112220
#        127287
#        148492
#        158662
#        180262
#        196347
#        211060
#        227442
#        244609
#        263792
#        276907
#        296500
#
# Disc length: 4217 seconds
#
# Revision: 0
# Processed by: cddbd v1.5PL3 Copyright (c) Steve Scherf et al.
# Submitted via: ExactAudioCopy v0.95a3
#
DISCID=1b107713
DTITLE=Pussycat - The complete collection - disc 1
DYEAR=2004
DGENRE=
TTITLE0=Mississippi
TTITLE1=Georgie
TTITLE2=Boulevard de la Madeleine
TTITLE3=Mexicali Lane
TTITLE4=Help me living on
TTITLE5=Smile
TTITLE6=My broken souvenirs
TTITLE7=The easy way
TTITLE8=I'll be your woman
TTITLE9=You don't know (What it's like to be near)
TTITLE10=If you ever come to Amsterdam
TTITLE11=Same old song
TTITLE12=Goodbye to lovin'
TTITLE13=Wet day in September
TTITLE14=Hey Joe
TTITLE15=Another day (The sun comes up tomorrow)
TTITLE16=Love in September
TTITLE17=I must get you
TTITLE18=Alleghenny
EXTD=
EXTT0=
EXTT1=
EXTT2=
EXTT3=
EXTT4=
EXTT5=
EXTT6=
EXTT7=
EXTT8=
EXTT9=
EXTT10=
EXTT11=
EXTT12=
EXTT13=
EXTT14=
EXTT15=
EXTT16=
EXTT17=
EXTT18=
PLAYORDER=
